# xmcd
#
# Track frame offsets: 
#        150
#        13872
#        31505
#        44715
#        52748
#        65969
#        76051
#        88226
#        102492
#        114066
#        130195
#        150122
#        164243
#        177186
#        189633
#        206075
#        222908
#        236108
#        249290
#        265692
#        278349
#        287649
#        301087
#        326828
#        339528
#
# Disc length: 4725 seconds
#
# Revision: 0
# Processed by: cddbd v1.5.2PL0 Copyright (c) Steve Scherf et al.
# Submitted via: ExactAudioCopy v1.3
#
DISCID=5c127319
DTITLE=Various Artist - Akella Presents - vol.204 - Rockin' Rollers B
DTITLE=lues  CD2
DYEAR=2019
DGENRE=Blues
TTITLE0=The Rudy Boy Experiment - Betty Lou
TTITLE1=Greg Baker and Highway 61 - Blues People
TTITLE2=The Hideaways - Bye Bye, Johnny
TTITLE3=The Rudy Boy Experiment - This is How My Life Goes
TTITLE4=Too Slim and The Taildraggers - Little Gun Motel
TTITLE5=Rj Mischo - Sugar Babe
TTITLE6=Nick Schnebelen - Ain't Got Time For The Blues
TTITLE7=The Seamus McGarvey Band - Roll Over Beethoven
TTITLE8=Big Boy Bloater and The Limits - Sweet and Brown
TTITLE9=George Benson - You Can't Catch Me
TTITLE10=Naughty Neighbor Girl - Cadillac Pete and The Heat
TTITLE11=Sugaray Rayford - Long Way Home
TTITLE12=Nine Below Zero - Hip Shake
TTITLE13=Blueberry Hill - Automobile
TTITLE14=Maria Muldaur - Now You're Down In The Alley
TTITLE15=Harpdog Brown - Git Ta Gittin' Baby
TTITLE16=The Fleurieu Bluesbreakers - Day Of A Thousand Smackaroonies
TTITLE17=Mike Zito and The Wheel - Get Out Of Denver
TTITLE18=Murray Kinsley - Fast Fast Car
TTITLE19=Jimmie Vaughan - What's Your Name
TTITLE20=Uni Debess - Devil's Jump
TTITLE21=Kenny 'Blues Boss' Wayne - Keep On Rockin
TTITLE22=Dana Gillespie and Mojo Blues Band - Big Ten Inch and 7th Floor B
TTITLE22=oogie
TTITLE23=Blueberry Hill - Juvelie
TTITLE24=Lee Rocker - Rumble In Brighton
EXTD=
EXTT0=
EXTT1=
EXTT2=
EXTT3=
EXTT4=
EXTT5=
EXTT6=
EXTT7=
EXTT8=
EXTT9=
EXTT10=
EXTT11=
EXTT12=
EXTT13=
EXTT14=
EXTT15=
EXTT16=
EXTT17=
EXTT18=
EXTT19=
EXTT20=
EXTT21=
EXTT22=
EXTT23=
EXTT24=
PLAYORDER=
